<svg xmlns="http://www.w3.org/2000/svg" viewBox="0 0 86.48 81.93"><defs><style>.cls-1{fill:#1d1d1b;}</style></defs><title>ecran6-balleFichier 24</title><g id="Calque_2" data-name="Calque 2"><g id="Calque_2-2" data-name="Calque 2"><path class="cls-1" d="M77.37,16.35C65.23.62,43-4.19,25.08,3.79c-1.31.59-.95,2.06,0,2.67C12.48,13.54,1.29,25.07.11,39.87-1.36,58.21,12.54,74.13,29.36,79.38c17.34,5.42,41,2.85,51.2-13.89C89.68,50.5,88,30.13,77.37,16.35ZM2.55,44.55C1,26.25,15.64,14.06,29.84,5.45a42.44,42.44,0,0,1,28.34,1A28.83,28.83,0,0,0,45.69,10.9c-7.19,4.72-9.86,12-9.75,19.4.12,8.08,3.19,15.89,3.06,24a21.37,21.37,0,0,1-2.73,10.89c-2.1,3.44-6.53,7.54-11.61,5.94a1.52,1.52,0,0,0-1.9,2.2C11.91,67.57,3.65,57.35,2.55,44.55Zm78,13c-3.34,9-9.77,15.67-19,18.51a55.82,55.82,0,0,1-26.34,1.56A44.46,44.46,0,0,1,26,74.85c6,1.15,12.24-4.94,14.43-9.09,3.27-6.22,3-13.35,1.86-19.93-1.54-8.8-5.21-18.94-.06-27.38,3.93-6.45,11.89-9.86,20.2-10a38.42,38.42,0,0,1,8.47,6.11C82.18,25.31,86,43,80.54,57.58Z"/></g></g></svg>